<svg width="24" height="24" viewBox="0 0 24 24" fill="none" xmlns="http://www.w3.org/2000/svg">
<path d="M18 3H6C3.79086 3 2 4.79086 2 7V17C2 19.2091 3.79086 21 6 21H18C20.2091 21 22 19.2091 22 17V7C22 4.79086 20.2091 3 18 3Z" stroke="#FDFDFD" stroke-width="1.5"/>
<path d="M2.46855 6.41438C2.1451 6.15562 1.67314 6.20806 1.41438 6.53151C1.15562 6.85496 1.20806 7.32692 1.53151 7.58568L2.46855 6.41438ZM22.4685 7.58568C22.792 7.32692 22.8444 6.85496 22.5857 6.53151C22.3269 6.20806 21.8549 6.15562 21.5315 6.41438L22.4685 7.58568ZM1.53151 7.58568L9.03273 13.5866L9.96977 12.4153L2.46855 6.41438L1.53151 7.58568ZM14.9673 13.5866L22.4685 7.58568L21.5315 6.41438L14.0303 12.4153L14.9673 13.5866ZM9.03273 13.5866C10.7675 14.9745 13.2325 14.9745 14.9673 13.5866L14.0303 12.4153C12.8433 13.3649 11.1567 13.3649 9.96977 12.4153L9.03273 13.5866Z" fill="#FDFDFD"/>
</svg>
