<svg width="24" height="24" viewBox="0 0 24 24" fill="none" xmlns="http://www.w3.org/2000/svg">
<path d="M16.8632 19.325L16.3161 19.838L16.3178 19.8398L16.8632 19.325ZM15.7233 9.9297L15.131 9.46954C15.125 9.47732 15.1191 9.48522 15.1134 9.49324L15.7233 9.9297ZM13.5296 15.7699L14.0767 15.2569L14.0749 15.255L13.5296 15.7699ZM13.4046 13.1698L13.9968 13.63C14.0028 13.6222 14.0087 13.6143 14.0145 13.6063L13.4046 13.1698ZM19.0001 3.75616L3.61146 10.4067L4.20653 11.7837L19.5952 5.13308L19.0001 3.75616ZM21.4228 5.6365C21.6388 4.27388 20.2666 3.20885 19.0001 3.75616L19.5952 5.13308C19.7761 5.05489 19.9722 5.20703 19.9413 5.4017L21.4228 5.6365ZM19.3188 18.9124L21.4228 5.6365L19.9413 5.4017L17.8373 18.6776L19.3188 18.9124ZM16.3178 19.8398C17.3153 20.8964 19.0913 20.3475 19.3188 18.9124L17.8373 18.6776C17.8048 18.8826 17.5511 18.9611 17.4086 18.8101L16.3178 19.8398ZM12.9825 16.2829L16.3161 19.838L17.4103 18.812L14.0767 15.2569L12.9825 16.2829ZM14.0145 13.6063L16.3332 10.3661L15.1134 9.49324L12.7946 12.7334L14.0145 13.6063ZM15.0361 9.01807L10.1888 12.2699L11.0244 13.5155L15.8718 10.2637L15.0361 9.01807ZM4.05521 13.7451L7.69827 14.272L7.91298 12.7875L4.26992 12.2606L4.05521 13.7451ZM3.61146 10.4067C1.99162 11.1068 2.30873 13.4925 4.05521 13.7451L4.26992 12.2606C4.19065 12.2491 4.14853 12.2192 4.12217 12.1907C4.09124 12.1573 4.066 12.1071 4.05789 12.0461C4.04978 11.9851 4.06103 11.9301 4.08217 11.8897C4.10017 11.8553 4.13301 11.8154 4.20653 11.7837L3.61146 10.4067ZM10.1888 12.2699C9.52043 12.7182 8.7095 12.9027 7.91298 12.7875L7.69827 14.272C8.86241 14.4404 10.0476 14.1708 11.0244 13.5155L10.1888 12.2699ZM16.3155 10.3898C16.9775 9.53784 15.9321 8.41696 15.0361 9.01807L15.8718 10.2637C15.353 10.6117 14.7478 9.96282 15.131 9.46954L16.3155 10.3898ZM14.0749 15.255C13.6517 14.8067 13.6185 14.1168 13.9968 13.63L12.8123 12.7097C11.9801 13.7807 12.0531 15.2985 12.9842 16.2848L14.0749 15.255Z" fill="#28303F"/>
</svg>
