<svg width="24" height="24" viewBox="0 0 24 24" fill="none" xmlns="http://www.w3.org/2000/svg">
<path d="M5.25009 12C5.25009 12.4142 5.58588 12.75 6.00009 12.75C6.4143 12.75 6.75009 12.4142 6.75009 12H5.25009ZM17.5304 4.46967C17.2375 4.17678 16.7626 4.17678 16.4697 4.46967C16.1768 4.76256 16.1768 5.23744 16.4697 5.53033L17.5304 4.46967ZM16.4697 8.46967C16.1768 8.76256 16.1768 9.23744 16.4697 9.53033C16.7626 9.82322 17.2375 9.82322 17.5304 9.53033L16.4697 8.46967ZM18.0001 7.75C18.4143 7.75 18.7501 7.41421 18.7501 7C18.7501 6.58579 18.4143 6.25 18.0001 6.25V7.75ZM18.7501 12C18.7501 11.5858 18.4143 11.25 18.0001 11.25C17.5859 11.25 17.2501 11.5858 17.2501 12H18.7501ZM6.46976 19.5303C6.76265 19.8232 7.23753 19.8232 7.53042 19.5303C7.82331 19.2374 7.82331 18.7626 7.53042 18.4697L6.46976 19.5303ZM7.53042 15.5303C7.82331 15.2374 7.82331 14.7626 7.53042 14.4697C7.23753 14.1768 6.76265 14.1768 6.46976 14.4697L7.53042 15.5303ZM6.00009 16.25C5.58588 16.25 5.25009 16.5858 5.25009 17C5.25009 17.4142 5.58588 17.75 6.00009 17.75V16.25ZM6.75009 12V11H5.25009V12H6.75009ZM18.8233 5.76256L17.5304 4.46967L16.4697 5.53033L17.7626 6.82322L18.8233 5.76256ZM17.7626 7.17678L16.4697 8.46967L17.5304 9.53033L18.8233 8.23744L17.7626 7.17678ZM10.0001 7.75H18.0001V6.25H10.0001V7.75ZM17.7626 6.82322C17.8603 6.92085 17.8603 7.07915 17.7626 7.17678L18.8233 8.23744C19.5067 7.55402 19.5067 6.44598 18.8233 5.76256L17.7626 6.82322ZM6.75009 11C6.75009 9.20507 8.20517 7.75 10.0001 7.75V6.25C7.37674 6.25 5.25009 8.37665 5.25009 11H6.75009ZM17.2501 12V13H18.7501V12H17.2501ZM5.17687 18.2374L6.46976 19.5303L7.53042 18.4697L6.23753 17.1768L5.17687 18.2374ZM6.23753 16.8232L7.53042 15.5303L6.46976 14.4697L5.17687 15.7626L6.23753 16.8232ZM14.0001 16.25H6.00009V17.75H14.0001V16.25ZM6.23753 17.1768C6.1399 17.0791 6.1399 16.9209 6.23753 16.8232L5.17687 15.7626C4.49345 16.446 4.49345 17.554 5.17687 18.2374L6.23753 17.1768ZM17.2501 13C17.2501 14.7949 15.795 16.25 14.0001 16.25V17.75C16.6234 17.75 18.7501 15.6234 18.7501 13H17.2501Z" fill="#28303F"/>
</svg>
