<svg width="24" height="24" viewBox="0 0 24 24" fill="none" xmlns="http://www.w3.org/2000/svg">
<path d="M4.61091 3.75H19.3894V2.25H4.61091V3.75ZM20.8601 6.63113L10.5532 19.5467L11.7256 20.4824L22.0325 7.56675L20.8601 6.63113ZM7.2267 18.4553V12.247H5.7267V18.4553H7.2267ZM6.33019 10.0087L3.2407 6.74661L2.15163 7.77807L5.24111 11.0401L6.33019 10.0087ZM7.2267 12.247C7.2267 11.4142 6.90467 10.6152 6.33019 10.0087L5.24111 11.0401C5.55527 11.3718 5.7267 11.803 5.7267 12.247H7.2267ZM10.5532 19.5467C9.44581 20.9344 7.2267 20.1217 7.2267 18.4553H5.7267C5.7267 21.6253 9.78642 22.9123 11.7256 20.4824L10.5532 19.5467ZM4.61091 2.25C1.72134 2.25 0.130479 5.64402 2.15163 7.77807L3.2407 6.74661C2.18027 5.62694 2.95726 3.75 4.61091 3.75V2.25ZM19.3894 3.75C20.9674 3.75 21.7757 5.48366 20.8601 6.63113L22.0325 7.56675C23.7793 5.37776 22.1481 2.25 19.3894 2.25V3.75Z" fill="#28303F"/>
</svg>
