<svg width="24" height="24" viewBox="0 0 24 24" fill="none" xmlns="http://www.w3.org/2000/svg">
<path d="M3.00001 21L2.26906 20.832C2.21121 21.0838 2.28701 21.3477 2.46968 21.5303C2.65235 21.713 2.91618 21.7888 3.16796 21.731L3.00001 21ZM21.5304 3.53031C21.8232 3.2374 21.8232 2.76253 21.5303 2.46965C21.2374 2.17677 20.7625 2.17679 20.4696 2.46969L21.5304 3.53031ZM16.6258 14.0011C16.3329 14.294 16.3329 14.7689 16.6258 15.0618C16.9187 15.3547 17.3936 15.3547 17.6865 15.0618L16.6258 14.0011ZM15.3802 5.54472C15.0873 5.25183 14.6124 5.25183 14.3195 5.54473C14.0266 5.83762 14.0266 6.31249 14.3195 6.60539L15.3802 5.54472ZM5.83652 15.0883C5.54363 14.7954 5.06875 14.7954 4.77586 15.0883C4.48297 15.3812 4.48297 15.8561 4.77587 16.149L5.83652 15.0883ZM7.85094 19.224C8.14384 19.5169 8.61871 19.5169 8.9116 19.224C9.20449 18.9311 9.20449 18.4563 8.9116 18.1634L7.85094 19.224ZM18.9323 7.50903L7.89969 18.5415L8.96034 19.6022L19.9929 8.5697L18.9323 7.50903ZM5.45849 16.1004L16.4911 5.06788L15.4304 4.00721L4.39784 15.0397L5.45849 16.1004ZM6.16084 19.5042L2.83206 20.269L3.16796 21.731L6.49674 20.9661L6.16084 19.5042ZM3.73096 21.168L4.49582 17.8392L3.03392 17.5033L2.26906 20.832L3.73096 21.168ZM4.39784 15.0397C3.72095 15.7166 3.24828 16.5703 3.03392 17.5033L4.49582 17.8392C4.64712 17.1807 4.98074 16.5781 5.45849 16.1004L4.39784 15.0397ZM7.89969 18.5415C7.42193 19.0193 6.81933 19.3529 6.16084 19.5042L6.49674 20.9661C7.42969 20.7517 8.28345 20.2791 8.96034 19.6022L7.89969 18.5415ZM18.9323 5.06788C19.6064 5.74198 19.6064 6.83492 18.9323 7.50903L19.9929 8.5697C21.2528 7.3098 21.2528 5.26711 19.9929 4.00721L18.9323 5.06788ZM19.9929 4.00721C18.733 2.74732 16.6903 2.74732 15.4304 4.00721L16.4911 5.06788C17.1652 4.39377 18.2581 4.39377 18.9323 5.06788L19.9929 4.00721ZM20.4696 2.46969L18.9322 4.00724L19.9929 5.06785L21.5304 3.53031L20.4696 2.46969ZM18.1634 12.4636L16.6258 14.0011L17.6865 15.0618L19.224 13.5243L18.1634 12.4636ZM19.224 9.38854L15.3802 5.54472L14.3195 6.60539L18.1634 10.4492L19.224 9.38854ZM19.224 13.5243C20.3661 12.3822 20.3661 10.5306 19.224 9.38854L18.1634 10.4492C18.7196 11.0055 18.7196 11.9073 18.1634 12.4636L19.224 13.5243ZM4.77587 16.149L7.85094 19.224L8.9116 18.1634L5.83652 15.0883L4.77587 16.149Z" fill="#28303F"/>
</svg>
