<svg width="24" height="24" viewBox="0 0 24 24" fill="none" xmlns="http://www.w3.org/2000/svg">
<path d="M16 4.25004C15.5858 4.25004 15.25 4.58583 15.25 5.00004C15.25 5.41425 15.5858 5.75004 16 5.75004V4.25004ZM8 5.75004C8.41421 5.75004 8.75 5.41425 8.75 5.00004C8.75 4.58583 8.41421 4.25004 8 4.25004V5.75004ZM12.75 19C12.75 18.5858 12.4142 18.25 12 18.25C11.5858 18.25 11.25 18.5858 11.25 19H12.75ZM9 21.25C8.58579 21.25 8.25 21.5858 8.25 22C8.25 22.4142 8.58579 22.75 9 22.75V21.25ZM15 22.75C15.4142 22.75 15.75 22.4142 15.75 22C15.75 21.5858 15.4142 21.25 15 21.25V22.75ZM12.75 3.18746C12.75 2.77325 12.4142 2.43746 12 2.43746C11.5858 2.43746 11.25 2.77325 11.25 3.18746H12.75ZM11.25 8.72879C11.25 9.143 11.5858 9.47879 12 9.47879C12.4142 9.47879 12.75 9.143 12.75 8.72879H11.25ZM12 3.00004L11.5777 3.61987L12 3.90755L12.4223 3.61987L12 3.00004ZM12 9.00004L11.5777 9.61987C11.8325 9.79343 12.1675 9.79343 12.4223 9.61987L12 9.00004ZM20.25 7.00004V17H21.75V7.00004H20.25ZM19 18.25H5V19.75H19V18.25ZM3.75 17V7.00004H2.25V17H3.75ZM16 5.75004H19V4.25004H16V5.75004ZM5 5.75004H8V4.25004H5V5.75004ZM5 18.25C4.30964 18.25 3.75 17.6904 3.75 17H2.25C2.25 18.5188 3.48122 19.75 5 19.75V18.25ZM20.25 17C20.25 17.6904 19.6904 18.25 19 18.25V19.75C20.5188 19.75 21.75 18.5188 21.75 17H20.25ZM21.75 7.00004C21.75 5.48126 20.5188 4.25004 19 4.25004V5.75004C19.6904 5.75004 20.25 6.30968 20.25 7.00004H21.75ZM3.75 7.00004C3.75 6.30968 4.30964 5.75004 5 5.75004V4.25004C3.48122 4.25004 2.25 5.48126 2.25 7.00004H3.75ZM11.25 19V22H12.75V19H11.25ZM12 21.25H9V22.75H12V21.25ZM12 22.75H15V21.25H12V22.75ZM11.25 3.18746V8.72879H12.75V3.18746H11.25ZM8.71583 2.74994C9.12146 2.7945 9.66883 2.89129 10.2097 3.04367C10.7606 3.19887 11.2502 3.39673 11.5777 3.61987L12.4223 2.38021C11.9003 2.02463 11.2325 1.77342 10.6164 1.59987C9.99038 1.42349 9.36135 1.31183 8.87963 1.25891L8.71583 2.74994ZM8.71583 8.72368C9.11542 8.76758 9.66047 8.86967 10.2022 9.02839C10.7528 9.18969 11.2463 9.39407 11.5777 9.61987L12.4223 8.38021C11.9042 8.02729 11.2403 7.76948 10.6239 7.5889C9.99873 7.40572 9.36739 7.28624 8.87963 7.23265L8.71583 8.72368ZM7.25 2.75261V7.13335H8.75V2.75261H7.25ZM8.87963 7.23265C8.83634 7.22789 8.79863 7.20755 8.77457 7.18256C8.75254 7.15966 8.75 7.14275 8.75 7.13335H7.25C7.25 8.00254 7.94482 8.63898 8.71583 8.72368L8.87963 7.23265ZM8.87963 1.25891C7.94967 1.15674 7.25 1.91456 7.25 2.75261H8.75C8.75 2.73802 8.75549 2.73469 8.75228 2.73775C8.75035 2.73959 8.74529 2.74359 8.73646 2.7467C8.73212 2.74822 8.72766 2.74923 8.72348 2.74972C8.71924 2.75021 8.71652 2.75001 8.71583 2.74994L8.87963 1.25891ZM15.1204 1.25891C14.6386 1.31183 14.0096 1.42349 13.3836 1.59987C12.7675 1.77342 12.0997 2.02463 11.5777 2.38021L12.4223 3.61987C12.7498 3.39673 13.2394 3.19887 13.7903 3.04367C14.3312 2.89129 14.8785 2.7945 15.2842 2.74994L15.1204 1.25891ZM15.1204 7.23265C14.6326 7.28624 14.0013 7.40572 13.3761 7.5889C12.7597 7.76948 12.0958 8.02729 11.5777 8.38021L12.4223 9.61987C12.7537 9.39407 13.2472 9.18969 13.7978 9.02839C14.3395 8.86967 14.8846 8.76758 15.2842 8.72368L15.1204 7.23265ZM15.25 2.75261V7.13335H16.75V2.75261H15.25ZM15.2842 8.72368C16.0552 8.63898 16.75 8.00254 16.75 7.13335H15.25C15.25 7.14275 15.2475 7.15966 15.2254 7.18256C15.2014 7.20755 15.1637 7.22789 15.1204 7.23265L15.2842 8.72368ZM15.2842 2.74994C15.2835 2.75001 15.2808 2.75021 15.2765 2.74972C15.2723 2.74923 15.2679 2.74822 15.2635 2.7467C15.2547 2.74359 15.2496 2.73959 15.2477 2.73775C15.2445 2.73469 15.25 2.73802 15.25 2.75261H16.75C16.75 1.91456 16.0503 1.15674 15.1204 1.25891L15.2842 2.74994Z" fill="#28303F"/>
</svg>
