<svg width="26" height="24" viewBox="0 0 26 24" fill="none" xmlns="http://www.w3.org/2000/svg">
<path d="M8.3335 8.79167C7.85025 8.79167 7.4585 9.18342 7.4585 9.66667C7.4585 10.1499 7.85025 10.5417 8.3335 10.5417V8.79167ZM17.6668 10.5417C18.1501 10.5417 18.5418 10.1499 18.5418 9.66667C18.5418 9.18342 18.1501 8.79167 17.6668 8.79167V10.5417ZM8.3335 13.4583C7.85025 13.4583 7.4585 13.8501 7.4585 14.3333C7.4585 14.8166 7.85025 15.2083 8.3335 15.2083V13.4583ZM13.0002 15.2083C13.4834 15.2083 13.8752 14.8166 13.8752 14.3333C13.8752 13.8501 13.4834 13.4583 13.0002 13.4583V15.2083ZM11.8335 2.375H14.1668V0.625H11.8335V2.375ZM2.2085 17.8333V12H0.458496V17.8333H2.2085ZM14.1668 21.625H6.00016V23.375H14.1668V21.625ZM0.458496 17.8333C0.458496 20.894 2.93959 23.375 6.00016 23.375V21.625C3.90608 21.625 2.2085 19.9274 2.2085 17.8333H0.458496ZM23.7918 12C23.7918 17.3157 19.4825 21.625 14.1668 21.625V23.375C20.4491 23.375 25.5418 18.2823 25.5418 12H23.7918ZM14.1668 2.375C19.4825 2.375 23.7918 6.68426 23.7918 12H25.5418C25.5418 5.71776 20.4491 0.625 14.1668 0.625V2.375ZM11.8335 0.625C5.55125 0.625 0.458496 5.71776 0.458496 12H2.2085C2.2085 6.68426 6.51775 2.375 11.8335 2.375V0.625ZM8.3335 10.5417H17.6668V8.79167H8.3335V10.5417ZM8.3335 15.2083H13.0002V13.4583H8.3335V15.2083Z" fill="#28303F"/>
</svg>
